<?xml version="1.0" encoding="UTF-8"?><svg xmlns="http://www.w3.org/2000/svg" xmlns:xlink="http://www.w3.org/1999/xlink" fill-opacity="1" color-rendering="auto" color-interpolation="auto" text-rendering="auto" stroke="white" stroke-linecap="square" width="286" stroke-miterlimit="10" shape-rendering="auto" stroke-opacity="1" fill="white" stroke-dasharray="none" font-weight="normal" stroke-width="1" height="291" font-family="'Dialog'" font-style="normal" stroke-linejoin="miter" font-size="12px" stroke-dashoffset="0" image-rendering="auto">
  <!--Generated by ySVG 2.6-->
  <defs id="genericDefs"/>
  <g>
    <defs id="defs1">
      <clipPath clipPathUnits="userSpaceOnUse" id="clipPath1">
        <path d="M0 0 L286 0 L286 291 L0 291 L0 0 Z"/>
      </clipPath>
      <clipPath clipPathUnits="userSpaceOnUse" id="clipPath2">
        <path d="M532 241 L818 241 L818 532 L532 532 L532 241 Z"/>
      </clipPath>
      <clipPath clipPathUnits="userSpaceOnUse" id="clipPath3">
        <path d="M655.985 246.2838 L655.985 262.4723 L694.9908 262.4723 L694.9908 246.2838 Z"/>
      </clipPath>
      <clipPath clipPathUnits="userSpaceOnUse" id="clipPath4">
        <path d="M-158.9361 -76.5663 L43.2964 -278.7988 L249.0645 -73.0307 L46.832 129.2018 L-158.9361 -76.5663 Z"/>
      </clipPath>
      <clipPath clipPathUnits="userSpaceOnUse" id="clipPath5">
        <path d="M18.2688 -283.5166 L220.5014 -81.284 L14.7333 124.484 L-187.4993 -77.7485 L18.2688 -283.5166 Z"/>
      </clipPath>
    </defs>
    <g fill="none" text-rendering="geometricPrecision" shape-rendering="geometricPrecision" transform="translate(-532,-241)" stroke="none">
      <rect x="532" width="286" height="291" y="241" clip-path="url(#clipPath2)" stroke="none"/>
    </g>
    <g fill="rgb(13,47,84)" text-rendering="geometricPrecision" shape-rendering="geometricPrecision" transform="matrix(1,0,0,1,-532,-241)" stroke="rgb(13,47,84)">
      <rect x="631.4813" width="91.476" height="64.5702" y="419.907" clip-path="url(#clipPath2)" stroke="none"/>
    </g>
    <g text-rendering="geometricPrecision" stroke-miterlimit="1.45" shape-rendering="geometricPrecision" transform="matrix(1,0,0,1,-532,-241)" stroke-linecap="butt">
      <rect fill="none" x="631.4813" width="91.476" height="64.5702" y="419.907" clip-path="url(#clipPath2)"/>
    </g>
    <g fill="rgb(21,101,192)" text-rendering="geometricPrecision" shape-rendering="geometricPrecision" transform="matrix(1,0,0,1,-532,-241)" stroke="rgb(21,101,192)">
      <rect x="561.0895" width="46.502" height="19.3504" y="366.8634" clip-path="url(#clipPath2)" stroke="none"/>
    </g>
    <g text-rendering="geometricPrecision" stroke-miterlimit="1.45" shape-rendering="geometricPrecision" transform="matrix(1,0,0,1,-532,-241)" stroke-linecap="butt">
      <rect fill="none" x="561.0895" width="46.502" height="19.3504" y="366.8634" clip-path="url(#clipPath2)"/>
      <text x="571.1383" font-size="11px" y="380.8113" clip-path="url(#clipPath2)" font-family="'Roboto Mono'" stroke="none" xml:space="preserve">UInt</text>
    </g>
    <g fill="rgb(21,101,192)" text-rendering="geometricPrecision" shape-rendering="geometricPrecision" transform="matrix(1,0,0,1,-532,-241)" stroke="rgb(21,101,192)">
      <rect x="652.237" width="46.502" height="19.3504" y="324.4694" clip-path="url(#clipPath2)" stroke="none"/>
    </g>
    <g text-rendering="geometricPrecision" stroke-miterlimit="1.45" shape-rendering="geometricPrecision" transform="matrix(1,0,0,1,-532,-241)" stroke-linecap="butt">
      <rect fill="none" x="652.237" width="46.502" height="19.3504" y="324.4694" clip-path="url(#clipPath2)"/>
      <text x="662.2858" font-size="11px" y="338.4174" clip-path="url(#clipPath2)" font-family="'Roboto Mono'" stroke="none" xml:space="preserve">Bits</text>
    </g>
    <g fill="rgb(21,101,192)" text-rendering="geometricPrecision" shape-rendering="geometricPrecision" transform="matrix(1,0,0,1,-532,-241)" stroke="rgb(21,101,192)">
      <rect x="741.1127" width="46.502" height="19.3504" y="366.8634" clip-path="url(#clipPath2)" stroke="none"/>
    </g>
    <g text-rendering="geometricPrecision" stroke-miterlimit="1.45" shape-rendering="geometricPrecision" transform="matrix(1,0,0,1,-532,-241)" stroke-linecap="butt">
      <rect fill="none" x="741.1127" width="46.502" height="19.3504" y="366.8634" clip-path="url(#clipPath2)"/>
      <text x="751.1616" font-size="11px" y="380.8113" clip-path="url(#clipPath2)" font-family="'Roboto Mono'" stroke="none" xml:space="preserve">SInt</text>
    </g>
    <g fill="rgb(21,101,192)" text-rendering="geometricPrecision" shape-rendering="geometricPrecision" transform="matrix(1,0,0,1,-532,-241)" stroke="rgb(21,101,192)">
      <rect x="653" width="44" height="20" y="242" clip-path="url(#clipPath2)" stroke="none"/>
      <rect x="652" y="241" clip-path="url(#clipPath2)" fill="rgb(66,165,245)" width="1" height="22" stroke="none"/>
      <rect x="653" y="241" clip-path="url(#clipPath2)" fill="rgb(66,165,245)" width="44" height="1" stroke="none"/>
      <rect x="653" y="262" clip-path="url(#clipPath2)" fill="rgb(13,71,161)" width="45" height="1" stroke="none"/>
      <rect x="697" y="241" clip-path="url(#clipPath2)" fill="rgb(13,71,161)" width="1" height="21" stroke="none"/>
      <text x="675" y="256" text-anchor="middle" fill="white" font-family="'Roboto Mono'" font-size="9" stroke="none">Type T</text>
      <rect x="653.9683" y="460.6082" clip-path="url(#clipPath2)" fill="rgb(21,101,192)" width="46.502" height="19.3504" stroke="none"/>
    </g>
    <g text-rendering="geometricPrecision" stroke-miterlimit="1.45" shape-rendering="geometricPrecision" transform="matrix(1,0,0,1,-532,-241)" stroke-linecap="butt">
      <rect fill="none" x="653.9683" width="46.502" height="19.3504" y="460.6082" clip-path="url(#clipPath2)"/>
      <text x="654.1155" font-size="11px" y="474.5561" clip-path="url(#clipPath2)" font-family="'Roboto Mono'" stroke="none" xml:space="preserve">Boolean</text>
    </g>
    <g fill="rgb(21,101,192)" text-rendering="geometricPrecision" shape-rendering="geometricPrecision" transform="matrix(1,0,0,1,-532,-241)" stroke="rgb(21,101,192)">
      <rect x="653.9683" width="46.502" height="19.3504" y="427.0116" clip-path="url(#clipPath2)" stroke="none"/>
    </g>
    <g text-rendering="geometricPrecision" stroke-miterlimit="1.45" shape-rendering="geometricPrecision" transform="matrix(1,0,0,1,-532,-241)" stroke-linecap="butt">
      <rect fill="none" x="653.9683" width="46.502" height="19.3504" y="427.0116" clip-path="url(#clipPath2)"/>
      <text x="667.3177" font-size="11px" y="440.9595" clip-path="url(#clipPath2)" font-family="'Roboto Mono'" stroke="none" xml:space="preserve">Bit</text>
    </g>
    <g fill="rgb(21,101,192)" text-rendering="geometricPrecision" shape-rendering="geometricPrecision" transform="matrix(1,0,0,1,-532,-241)" stroke="rgb(21,101,192)">
      <rect x="653.9683" width="46.502" height="19.3504" y="512.3163" clip-path="url(#clipPath2)" stroke="none"/>
    </g>
    <g text-rendering="geometricPrecision" stroke-miterlimit="1.45" shape-rendering="geometricPrecision" transform="matrix(1,0,0,1,-532,-241)" stroke-linecap="butt">
      <rect fill="none" x="653.9683" width="46.502" height="19.3504" y="512.3163" clip-path="url(#clipPath2)"/>
      <text x="667.3177" font-size="11px" y="526.2642" clip-path="url(#clipPath2)" font-family="'Roboto Mono'" stroke="none" xml:space="preserve">Int</text>
      <path fill="none" stroke-dasharray="6,2" d="M631.5109 446.1111 L628.9404 445.3033 L621.2231 441.7097 L614.8668 437.5025 L605.4766 427.5175 L599.2492 415.8885 L594.6644 403.1556 L591.4745 393.6516 L591.4343 393.56" clip-path="url(#clipPath2)"/>
      <path stroke-dasharray="6,2" d="M588.5515 386.0975 L588.2115 399.093 L591.7946 394.4929 L597.5397 395.4896 Z" clip-path="url(#clipPath2)" stroke="none"/>
    </g>
    <g font-size="10px" stroke-linecap="butt" transform="matrix(0.7071,0.7071,-0.7071,0.7071,58.2443,166.5253)" text-rendering="geometricPrecision" font-family="'Roboto Mono'" shape-rendering="geometricPrecision" stroke-miterlimit="1.45">
      <text x="2" xml:space="preserve" y="12.4785" clip-path="url(#clipPath4)" stroke="none">.toUInt(w)</text>
    </g>
    <g text-rendering="geometricPrecision" stroke-miterlimit="1.45" shape-rendering="geometricPrecision" transform="matrix(1,0,0,1,-532,-241)" stroke-linecap="butt">
      <path fill="none" d="M607.5896 379.3294 L613.4203 379.4701 L626.387 377.5534 L638.3048 373.3816 L649.1738 366.9549 L658.994 358.2731 L665.3058 350.4032 L665.3563 350.3169" clip-path="url(#clipPath2)"/>
      <path d="M669.8883 343.7244 L658.97 350.7807 L664.7899 351.141 L667.2107 356.4456 Z" clip-path="url(#clipPath2)" stroke="none"/>
      <text x="616.7449" font-size="10px" y="366.8128" clip-path="url(#clipPath2)" font-family="'Roboto Mono'" stroke="none" xml:space="preserve">.bits</text>
      <path fill="none" d="M661.5035 419.9237 L659.5929 416.0006 L655.1288 403.0332 L653.5371 391.6402 L654.7974 380.4382 L658.8895 368.0439 L667.2205 351.0293" clip-path="url(#clipPath2)"/>
      <path d="M670.7386 343.8443 L660.9709 352.4229 L666.7808 351.9274 L669.9521 356.8205 Z" clip-path="url(#clipPath2)" stroke="none"/>
      <text x="622.9278" font-size="10px" y="398.6546" clip-path="url(#clipPath2)" font-family="'Roboto Mono'" stroke="none" xml:space="preserve">.bits</text>
      <path fill="none" stroke-dasharray="6,2" d="M691.2906 419.9262 L691.9977 418.3047 L695.6349 405.9132 L696.7436 394.7122 L695.3035 383.3182 L691.2944 370.3479 L682.903 351.1281" clip-path="url(#clipPath2)"/>
      <path stroke-dasharray="6,2" d="M679.702 343.7965 L679.9213 356.7946 L683.3032 352.0446 L689.0858 352.7933 Z" clip-path="url(#clipPath2)" stroke="none"/>
      <text x="694.1586" font-size="10px" y="399.1349" clip-path="url(#clipPath2)" font-family="'Roboto Mono'" stroke="none" xml:space="preserve">.toBits(w)</text>
      <path fill="none" d="M652.2206 327.3577 L643.9712 325.974 L630.3953 326.5809 L618.2744 330.316 L607.6085 337.1794 L598.3975 347.171 L591.1329 359.4594 L591.0968 359.5526" clip-path="url(#clipPath2)"/>
      <path d="M588.056 366.9521 L597.2419 357.7533 L591.4769 358.6277 L587.9924 353.9523 Z" clip-path="url(#clipPath2)" stroke="none"/>
      <text x="592.9362" font-size="10px" y="326.0959" clip-path="url(#clipPath2)" font-family="'Roboto Mono'" stroke="none" xml:space="preserve">.uint</text>
      <path fill="none" d="M698.7548 328.8657 L705.6558 328.0789 L718.7524 329.2121 L730.5243 333.1227 L740.9714 339.8106 L750.0936 349.2759 L756.7229 359.6844 L756.7625 359.7763" clip-path="url(#clipPath2)"/>
      <path d="M760.248 366.977 L759.5201 353.9974 L756.3267 358.8762 L750.5192 358.3544 Z" clip-path="url(#clipPath2)" stroke="none"/>
      <text x="722.7957" font-size="10px" y="327.4671" clip-path="url(#clipPath2)" font-family="'Roboto Mono'" stroke="none" xml:space="preserve">.sint</text>
      <path fill="none" stroke-dasharray="6,2" d="M722.9583 446.6653 L726.9084 445.4761 L734.693 441.9572 L741.0002 437.8264 L746.0189 433.1461 L749.9378 427.9783 L755.2322 416.4285 L758.394 403.674 L760.2109 394.0452 L760.2353 393.9482" clip-path="url(#clipPath2)"/>
      <path stroke-dasharray="6,2" d="M761.9538 386.135 L754.4928 396.7808 L760.0205 394.9249 L764.2593 398.9289 Z" clip-path="url(#clipPath2)" stroke="none"/>
    </g>
    <g font-size="10px" stroke-linecap="butt" transform="matrix(0.7071,-0.7071,0.7071,0.7071,187.5585,213.3945)" text-rendering="geometricPrecision" font-family="'Roboto Mono'" shape-rendering="geometricPrecision" stroke-miterlimit="1.45">
      <text x="2" xml:space="preserve" y="12.4785" clip-path="url(#clipPath5)" stroke="none">.toSInt(w)</text>
    </g>
    <g text-rendering="geometricPrecision" stroke-miterlimit="1.45" stroke-dasharray="6,2" shape-rendering="geometricPrecision" transform="matrix(1,0,0,1,-532,-241)" stroke-linecap="butt">
      <path fill="none" d="M581.9482 386.2112 L578.5355 400.0094 L575.5703 422.5722 L575.505 433.292 L576.5725 443.5194 L578.9138 453.1662 L582.6697 462.1439 L587.9813 470.364 L594.9894 477.7381 L603.8351 484.1778 L614.6593 489.5946 L627.6028 493.9002 L642.8068 497.0061 L660.412 498.8239 L680.5595 499.2652 L700.5851 498.3127 L717.8445 496.0653 L732.5077 492.6086 L744.7451 488.0279 L754.7271 482.409 L762.6237 475.8373 L768.6054 468.3984 L772.8424 460.1778 L775.5051 451.2611 L776.7635 441.7339 L775.7493 421.1898 L771.1619 399.2299 L769.5675 393.9079" clip-path="url(#clipPath2)"/>
      <path d="M767.2715 386.2445 L765.9258 399.1746 L769.8545 394.8659 L775.5051 396.3047 Z" clip-path="url(#clipPath2)" stroke="none"/>
      <text x="656.2589" font-size="10px" y="494.9692" clip-path="url(#clipPath2)" font-family="'Roboto Mono'" stroke-dasharray="none" stroke="none" xml:space="preserve">.signed</text>
      <path fill="none" stroke-dasharray="none" d="M741.116 378.9856 L735.8926 379.0473 L723.2201 377.0248 L711.5896 372.8178 L701.0012 366.4263 L691.4547 357.8503 L685.5897 350.4293 L685.5397 350.3426" clip-path="url(#clipPath2)"/>
      <path stroke-dasharray="none" d="M681.0137 343.746 L683.6798 356.4697 L686.1055 351.1672 L691.9256 350.8122 Z" clip-path="url(#clipPath2)" stroke="none"/>
      <text x="701.394" font-size="10px" y="366.6249" clip-path="url(#clipPath2)" font-family="'Roboto Mono'" stroke-dasharray="none" stroke="none" xml:space="preserve">.bits</text>
      <path fill="none" stroke-dasharray="none" d="M667.0256 324.4734 L666.5545 323.9351 L660.1735 313.7255 L656.3449 303.5158 L655.0687 293.3062 L656.3449 283.0966 L660.1735 272.887 L661.6913 270.4585" clip-path="url(#clipPath2)"/>
      <path stroke-dasharray="none" d="M665.9313 263.6745 L655.3314 271.2005 L661.1614 271.3065 L663.8113 276.5005 Z" clip-path="url(#clipPath2)" stroke="none"/>
      <text x="619.4559" font-size="10px" y="294.0886" clip-path="url(#clipPath2)" font-family="'Roboto Mono'" stroke-dasharray="none" stroke="none" xml:space="preserve">.as(T)</text>
      <path fill="none" stroke-dasharray="none" d="M685.0445 263.6745 L690.8023 272.887 L694.6309 283.0966 L695.9071 293.3062 L694.6309 303.5158 L690.8023 313.7255 L688.2866 317.7506 L688.2207 317.8259" clip-path="url(#clipPath2)"/>
      <path stroke-dasharray="none" d="M683.8968 324.5567 L694.5894 317.163 L688.7612 316.9846 L686.1759 311.7581 Z" clip-path="url(#clipPath2)" stroke="none"/>
      <text x="695.3398" font-size="10px" y="294.2564" clip-path="url(#clipPath2)" font-family="'Roboto Mono'" stroke-dasharray="none" stroke="none" xml:space="preserve">.bits</text>
      <path fill="none" stroke-dasharray="none" d="M700.462 471.0235 L703.9048 470.4391 L709.8566 468.1526 L714.3796 465.046 L717.4998 461.3289 L719.2429 457.211 L719.6346 452.9018 L718.701 448.6107 L716.4676 444.5475 L712.9604 440.9216 L708.2051 437.9427 L708.1095 437.9087 L708.0106 437.8942" clip-path="url(#clipPath2)"/>
      <path stroke-dasharray="none" d="M700.3676 435.5309 L710.355 443.8527 L708.9659 438.1896 L713.309 434.2989 Z" clip-path="url(#clipPath2)" stroke="none"/>
      <text x="693.0605" font-size="10px" y="456.4432" clip-path="url(#clipPath2)" font-family="'Roboto Mono'" stroke-dasharray="none" stroke="none" xml:space="preserve">.bit</text>
      <path fill="none" stroke-dasharray="none" d="M653.9572 435.6175 L651.4109 435.9845 L645.6542 438.0243 L641.2791 440.8769 L638.2606 444.3479 L636.574 448.2428 L636.1942 452.3671 L637.0965 456.5263 L639.256 460.526 L642.6476 464.1717 L646.564 466.8091 L646.6575 466.8445" clip-path="url(#clipPath2)"/>
      <path stroke-dasharray="none" d="M654.0696 469.8544 L644.8326 460.7069 L645.731 466.4682 L641.0702 469.9721 Z" clip-path="url(#clipPath2)" stroke="none"/>
      <text x="634.9679" font-size="10px" y="456.0886" clip-path="url(#clipPath2)" font-family="'Roboto Mono'" stroke-dasharray="none" stroke="none" xml:space="preserve">.bool</text>
      <path fill="none" stroke-dasharray="6,2" d="M579.5594 386.2349 L577.6705 390.0658 L572.7261 403.6451 L569.4941 417.1388 L567.9609 430.4087 L568.1132 443.3169 L569.9378 455.7256 L573.4213 467.4969 L578.5503 478.4927 L585.3115 488.5751 L593.6914 497.6062 L603.6769 505.4482 L615.2545 511.9629 L628.4109 517.0125 L643.1327 520.4592 L646.015 520.7612" clip-path="url(#clipPath2)"/>
      <path stroke-dasharray="6,2" d="M653.9714 521.5952 L642.5579 515.3715 L645.0204 520.657 L641.5156 525.317 Z" clip-path="url(#clipPath2)" stroke="none"/>
      <text x="534.2782" font-size="10px" y="471.3055" clip-path="url(#clipPath2)" font-family="'Roboto Mono'" stroke-dasharray="none" stroke="none" xml:space="preserve">.toInt</text>
      <path fill="none" stroke-dasharray="6,2" d="M770.6583 386.237 L773.4936 390.6054 L780.1669 404.7189 L784.4935 418.7269 L786.5834 432.4772 L786.5465 445.8177 L784.4928 458.5963 L780.5322 470.6606 L774.7748 481.8585 L767.3303 492.0379 L758.3088 501.0466 L747.8203 508.7324 L735.9745 514.9431 L722.8817 519.5265 L708.6515 522.3305 L708.4435 522.3424" clip-path="url(#clipPath2)"/>
      <path stroke-dasharray="6,2" d="M700.4566 522.7991 L712.7225 527.1059 L709.442 522.2853 L712.1516 517.1223 Z" clip-path="url(#clipPath2)" stroke="none"/>
      <text x="779.5695" font-size="10px" y="470.1076" clip-path="url(#clipPath2)" font-family="'Roboto Mono'" stroke-dasharray="none" stroke="none" xml:space="preserve">.toInt</text>
    </g>
  </g>
</svg>
